<svg xmlns="http://www.w3.org/2000/svg" xmlns:xlink="http://www.w3.org/1999/xlink" width="836" height="210" viewBox="0 0 836 210">
  <defs>
    <clipPath id="clip-path">
      <rect id="Rectangle_607" data-name="Rectangle 607" width="836" height="210" transform="translate(0 685)" fill="#d9d9d9"/>
    </clipPath>
  </defs>
  <g id="Rectangle_607-2" data-name="Rectangle 607" transform="translate(0 -685)" clip-path="url(#clip-path)">
    <g id="Group_1000001426" data-name="Group 1000001426" transform="translate(-237 646.953)">
      <g id="Group" transform="translate(2.709 25.949)">
        <g id="Group-2" data-name="Group">
          <path id="Vector" d="M.629,103.9c4.242-5.766,8.484-11.465,12.8-17.164C30.532,64.282,49.1,42.438,72.256,25.749,96.039,8.517,124.69-1.455,154.523.173a124.78,124.78,0,0,1,44.854,11.058c14.047,6.513,26.356,15.943,38.039,25.779,11.752,9.837,23.018,20.284,35.814,28.832a129.638,129.638,0,0,0,42,18.181c30.737,7.395,62.865,5.5,94.158,4.952,29.833-.543,59.6.271,88.6,8.141,52.364,14.179,97.5,45.385,141.237,75.642,44.437,30.8,89.708,62.753,142.42,78.492,2.712.746,3.616,4.817.834,6.174-2.364,1.153-4.659,2.239-7.024,3.392-3.964,1.967-7.51-3.867-3.477-5.834,2.364-1.153,4.659-2.239,7.024-3.392.278,2.035.556,4.138.835,6.174-6.328-1.832-12.517-3.935-18.637-6.241-50.556-19.131-94.089-51.423-138.108-81.612-43.254-29.646-88.873-59.089-141.516-69.672-30.32-6.106-61.335-4.613-92.072-4.07-30.111.543-61.265.407-89.986-9.633A141.47,141.47,0,0,1,260.851,65.3C248.89,56.209,237.9,45.965,226.22,36.536c-12.239-9.769-25.382-18.385-40.4-23.473a118.709,118.709,0,0,0-45.688-5.97C79.28,11.163,39.294,62.926,6.679,107.293c-2.643,3.528-8.623.136-6.05-3.392Z" transform="translate(0 0)" fill="#fff"/>
        </g>
      </g>
      <g id="Group-3" data-name="Group">
        <g id="Group-4" data-name="Group">
          <path id="Vector-2" data-name="Vector" d="M.139,80.8A231.827,231.827,0,0,1,20.862,59.635C81.571,5.294,168.636-13.837,247.217,10.247,287.968,22.729,321.974,46,351.946,75.238c31.224,30.461,59.6,64.11,98.539,85.683,84.84,46.946,186.23,38.194,279.693,33.242,93.88-5.02,187.2.543,279,20.217a999.578,999.578,0,0,1,258.344,93.892.428.428,0,0,1-.417.746q-14.917-7.937-30.111-15.332A1005.9,1005.9,0,0,0,837.341,193.552c-48.331-1.832-96.384.882-144.645,3.46-87.552,4.613-183.588,5.224-258.9-45.318-34.84-23.405-61.126-56.376-91.585-84.6-32.058-29.714-70.1-51.22-113.421-60.853C144.992-12.344,55.98,17.37.695,81.412c-.348.407-.974-.2-.556-.611Z" transform="translate(0 0)" fill="#fff" stroke="#fff" stroke-width="1"/>
        </g>
      </g>
    </g>
  </g>
</svg>
